<svg width="465" height="118" viewBox="0 0 465 118" fill="none" xmlns="http://www.w3.org/2000/svg">
<path d="M401.549 30.4883C402.935 31.2471 402.935 33.2382 401.549 33.9971L365.961 53.4824C364.628 54.2122 363 53.2471 363 51.7275V12.7578C363 11.2383 364.628 10.2732 365.961 11.0029L401.549 30.4883Z" stroke="#D6C8A8" stroke-width="6"/>
<path d="M428.549 30.4883C429.935 31.2471 429.935 33.2382 428.549 33.9971L392.961 53.4824C391.628 54.2122 390 53.2471 390 51.7275V12.7578C390 11.2383 391.628 10.2732 392.961 11.0029L428.549 30.4883Z" fill="#1C1C1C" stroke="#D6C8A8" stroke-width="6"/>
<path d="M65.4512 33.9971C64.0651 33.2383 64.0652 31.2472 65.4512 30.4883L101.039 11.003C102.372 10.2733 104 11.2384 104 12.7579V51.7276C104 53.2471 102.372 54.2122 101.039 53.4825L65.4512 33.9971Z" stroke="#D6C8A8" stroke-width="6"/>
<path d="M38.4512 33.9971C37.0651 33.2383 37.0652 31.2472 38.4512 30.4883L74.0391 11.003C75.3719 10.2733 77 11.2384 77 12.7579V51.7276C77 53.2471 75.3719 54.2122 74.0391 53.4825L38.4512 33.9971Z" fill="#1C1C1C" stroke="#D6C8A8" stroke-width="6"/>
<line x1="1.5" y1="111.5" x2="462.527" y2="111.5" stroke="#D6C8A8" stroke-width="3" stroke-linecap="round"/>
<ellipse cx="23.5" cy="111" rx="6.5" ry="7" fill="#C85A1E"/>
<path d="M214 23C214 21.8954 214.895 21 216 21H222.833C223.938 21 224.833 21.8954 224.833 23V40.5V58C224.833 59.1046 223.938 60 222.833 60H216C214.895 60 214 59.1046 214 58V23ZM243.833 23C243.833 21.8954 244.729 21 245.833 21H252C253.105 21 254 21.8954 254 23V58C254 59.1046 253.105 60 252 60H245.833C244.729 60 243.833 59.1046 243.833 58V23Z" fill="#D6C8A8"/>
</svg>
